<svg viewBox="0 0 24 24" xmlns="http://www.w3.org/2000/svg"><path d="M12 0C5.373 0 0 5.373 0 12c0 2.457.742 4.74 2.009 6.643L0 24l5.357-2.009A11.94 11.94 0 0 0 12 24c6.627 0 12-5.373 12-12S18.627 0 12 0z" fill="#31B34A"/><path d="M17.72 14.051s-1.224-.601-1.991-.996c-.865-.444-1.887.39-2.369.866-.435-.17-1.3-.568-2.006-1.275s-1.105-1.57-1.275-2.006c.476-.481 1.311-1.5.866-2.369-.395-.767-.996-1.99-.996-1.992A.5.5 0 0 0 9.5 6h-1C7.375 6 6 7.384 6 9c0 1.57 1.88 4.586 3.146 5.854S13.43 18 15 18c1.616 0 3-1.375 3-2.5v-1a.5.5 0 0 0-.28-.449z" fill="#FFF"/><path d="M12 .25c6.585 0 11.926 5.306 11.994 11.875 0-.042.006-.083.006-.125 0-6.627-5.373-12-12-12S0 5.373 0 12c0 .048.005.095.005.143C.063 5.566 5.41.25 12 .25z" fill="#FFF" opacity=".2"/><path d="M12 23.75a11.94 11.94 0 0 1-6.643-2.009L.11 23.709 0 24l5.357-2.009A11.94 11.94 0 0 0 12 24c6.627 0 12-5.373 12-12 0-.042-.006-.083-.006-.125C23.926 18.445 18.585 23.75 12 23.75z" fill="#010101" opacity=".1"/><path d="M11.354 12.896c.706.707 1.57 1.105 2.006 1.275.482-.476 1.504-1.31 2.369-.866.767.395 1.99.996 1.992.996a.5.5 0 0 1 .279.449v-.25a.5.5 0 0 0-.28-.449s-1.224-.601-1.991-.996c-.865-.444-1.887.39-2.369.866-.435-.17-1.3-.568-2.006-1.275-.63-.63-1.005-1.37-1.201-1.835-.024.026-.051.056-.074.079.17.435.568 1.3 1.275 2.006zm-.409-4.625c-.395-.767-.996-1.99-.996-1.992A.5.5 0 0 0 9.5 6h-1C7.375 6 6 7.384 6 9c0 .034.013.077.014.112C6.091 7.557 7.407 6.25 8.5 6.25h1a.5.5 0 0 1 .449.28s.601 1.224.996 1.991c.075.146.103.297.113.448.03-.235.003-.471-.113-.698z" fill="#FFF" opacity=".2"/><path d="M9.146 14.854C10.414 16.12 13.43 18 15 18c1.616 0 3-1.375 3-2.5v-.25c0 1.125-1.384 2.5-3 2.5-1.57 0-4.586-1.88-5.854-3.146-1.24-1.24-3.054-4.146-3.132-5.742C6.012 8.908 6 8.952 6 9c0 1.57 1.88 4.586 3.146 5.854z" fill="#010101" opacity=".1"/><linearGradient gradientUnits="userSpaceOnUse" id="a" x1="7.505" x2="19.958" y1="8.543" y2="20.995"><stop offset="0" stop-color="#010101" stop-opacity=".1"/><stop offset="1" stop-color="#010101" stop-opacity="0"/></linearGradient><path d="M9.876 6.172l-.003.024c.024.03.059.048.076.083 0 .001.601 1.225.996 1.992.445.868-.39 1.888-.866 2.369.17.435.568 1.3 1.275 2.006s1.57 1.105 2.006 1.275c.482-.476 1.504-1.31 2.369-.866.767.395 1.99.996 1.992.996A.5.5 0 0 1 18 14.5v1c0 1.125-1.384 2.5-3 2.5-1.501 0-4.306-1.712-5.66-2.97 1.561 1.598 5.857 5.989 7.751 7.824a12.032 12.032 0 0 0 5.035-4.433L9.876 6.171z" fill="url(#a)"/><linearGradient gradientUnits="userSpaceOnUse" id="b" x1=".288" x2="22.045" y1="8.715" y2="18.86"><stop offset="0" stop-color="#fff" stop-opacity=".2"/><stop offset="1" stop-color="#fff" stop-opacity="0"/></linearGradient><path d="M12 0C5.373 0 0 5.373 0 12c0 2.457.742 4.74 2.009 6.643L0 24l5.357-2.009A11.94 11.94 0 0 0 12 24c6.627 0 12-5.373 12-12S18.627 0 12 0z" fill="url(#b)"/></svg>